<svg width="209mm" height="209mm" version="1.1" viewBox="0 0 209 209" xmlns="http://www.w3.org/2000/svg"><circle cx="104.5" cy="103.9" r="104.5" style="fill-rule:evenodd;fill:#e6e6e6;paint-order:fill markers stroke"/><path d="m91.51 40.16c-2.424 0.489-4.764 1.324-6.95 2.479-12.59 6.654-17.4 22.25-10.75 34.84 11.28 16.08 25.56-10.13 44.69 1.562 4.839-7.785 5.181-17.55 0.8979-25.66-5.339-10.1-16.69-15.48-27.89-13.22zm43.81 28.46c-0.75 0.156-1.493 0.3457-2.226 0.568-24.91 9.645 6.146 26.1-6.068 46.6 7.633 4.907 16.61 4.251 25.99 0.6513s15.77-18.41 12.24-30.07c-3.875-12.77-16.86-20.48-29.93-17.76zm21.63 57.58c-9.185 0.5657-23.73-2.884-30.14-9.689 5.692 5.589 19.53 10.85 29.89 9.745 10.36-1.106 20.05-5.968 25.85-12.96-6.339 7.352-14.9 11.62-25.6 12.91zm-92.88-40.79c-2.424 0.489-4.764 1.324-6.95 2.48-12.59 6.654-17.4 22.25-10.75 34.84 6.654 12.59 22.25 17.4 34.84 10.75 16.87-11.88-11.86-25.32-0.01904-45.6-5.254-2.771-11.3-3.644-17.13-2.469zm26.64 39.53c-4.797 7.775-5.121 17.51-0.8516 25.58 6.654 12.59 22.25 17.4 34.84 10.75 12.59-6.654 17.4-22.25 10.75-34.84-11.55-17.38-25.36 9.397-44.74-1.489z" style="fill-rule:evenodd;fill:#3dbd2b;paint-order:fill markers stroke;stroke-dashoffset:9.692;stroke-linecap:round;stroke-linejoin:round;stroke-opacity:.6991;stroke-width:6.511;stroke:#3dbd2b"/><g transform="rotate(214.6 105.1 102)" style="fill:#333;font-variant-caps:normal;font-variant-east-asian:normal;font-variant-ligatures:normal;font-variant-numeric:normal;stroke-width:.2646" aria-label="Puroviva natürlich leben"><path d="m195.4 107.2-1.691 11.35q-0.5358 3.594-2.651 5.248-2.103 1.655-4.789 1.255-2.625-0.3913-4.193-2.493-1.568-2.102-1.184-4.678 0.32-2.147 2.27-4.038l-7.716-1.15 1.234-8.28zm-5.282 7.677-4.073-0.6071q-0.153 0.3534-0.2005 0.6723-0.139 0.9323 0.3639 1.597 0.5029 0.6643 1.46 0.8069 0.9446 0.1408 1.557-0.2694 0.6252-0.4084 0.7605-1.316z" style="fill:#333;font-variant-caps:normal;font-variant-east-asian:normal;font-variant-ligatures:normal;font-variant-numeric:normal;stroke-width:.2646"/><path d="m178 148.8-13.33-6.724 3.306-6.556 2.337 1.178 0.0223-0.0443q-0.7653-1.65-0.8217-2.998-0.0564-1.348 0.6752-2.799 1.055-2.093 2.944-2.752 1.882-0.648 4.119 0.4801l8.726 4.401-3.261 6.467-7.187-3.624q-1.816-0.9159-2.442 0.3244-0.4188 0.8305 0.0777 1.609l8.294 4.183z" style="fill:#333;font-variant-caps:normal;font-variant-east-asian:normal;font-variant-ligatures:normal;font-variant-numeric:normal;stroke-width:.2646"/><path d="m164.9 159.5q1.482 3.39-0.4151 5.419-1.059 1.132-2.488 1.171-1.429 0.0391-2.57-1.028-1.196-1.118-1.261-2.538-0.0645-1.402 1.02-2.561 1.237-1.323 3.114-1.333 0.0728-1.494-1.848-3.29l-4.067-3.804 5.235-5.598 10.91 10.2-5.235 5.598z" style="fill:#333;font-variant-caps:normal;font-variant-east-asian:normal;font-variant-ligatures:normal;font-variant-numeric:normal;stroke-width:.2646"/><path d="m142.4 162.7q3.011-1.875 6.097-1.284 3.082 0.6084 4.898 3.525t1.03 5.948-3.849 4.939q-3.085 1.921-6.152 1.289-3.078-0.6255-4.894-3.542-1.809-2.906-1.007-5.933 0.7924-3.021 3.877-4.942zm5.061 8.128q0.6317-0.3934 0.776-1.053 0.1404-0.6426-0.2595-1.285t-1.039-0.7997q-0.6492-0.1509-1.281 0.2424-0.6422 0.3999-0.7931 1.049-0.1509 0.6492 0.249 1.291 0.4065 0.6527 1.056 0.8037t1.291-0.249z" style="fill:#333;font-variant-caps:normal;font-variant-east-asian:normal;font-variant-ligatures:normal;font-variant-numeric:normal;stroke-width:.2646"/><path d="m138.5 182.3-7.358 2.147-2.662-3.189-0.4928 4.11-7.358 2.147 2.031-16.15 5.441-1.588z" style="fill:#333;font-variant-caps:normal;font-variant-east-asian:normal;font-variant-ligatures:normal;font-variant-numeric:normal;stroke-width:.2646"/><path d="m108.5 188.3q0.8914-0.0528 1.573 0.5528 0.6819 0.6056 0.7348 1.497 0.0528 0.8914-0.5536 1.561-0.6064 0.6696-1.498 0.7224-0.8914 0.0528-1.56-0.5412-0.6688-0.594-0.7216-1.485-0.0528-0.8914 0.5404-1.573 0.5933-0.6812 1.485-0.734zm-2.201 0.1801-0.8832-14.91 7.651-0.4533 0.8832 14.91q-1.561-0.7648-3.975-0.6217-2.241 0.1328-3.676 1.075z" style="fill:#333;font-variant-caps:normal;font-variant-east-asian:normal;font-variant-ligatures:normal;font-variant-numeric:normal;stroke-width:.2646"/><path d="m99.96 188.8-7.562-1.251-1.018-4.028-2.225 3.491-7.562-1.251 8.825-13.68 5.592 0.9254z" style="fill:#333;font-variant-caps:normal;font-variant-east-asian:normal;font-variant-ligatures:normal;font-variant-numeric:normal;stroke-width:.2646"/><path d="m78.05 178-1.911 4.062q-3.695 0.2214-7.421-1.532-3.546-1.668-4.517-3.976-0.9705-2.307 0.4973-5.427l3.517-7.474 6.935 3.263-0.4752 1.01q2.065-0.3989 3.906 0.4671 1.549 0.7286 2.111 2.213 0.5572 1.496-0.1609 3.022-0.8184 1.739-2.61 2.226-1.797 0.4978-3.862-0.4737-1.212-0.5702-2.22-1.428-0.4435 0.9427 0.03776 1.813 0.4701 0.8654 1.761 1.473 1.908 0.8976 4.412 0.7601zm-4.304-8.097-0.8871 1.885q0.5281 0.5089 1.033 0.7465 0.6284 0.2957 1.163 0.1498t0.7828-0.6734q0.2587-0.5499 0.02897-1.11-0.241-0.5657-0.8694-0.8614-0.6397-0.301-1.252-0.1366z" style="fill:#333;font-variant-caps:normal;font-variant-east-asian:normal;font-variant-ligatures:normal;font-variant-numeric:normal;stroke-width:.2646"/><path d="m39.77 158.4 1.437-1.201q-2.773-0.2049-4.498-2.27-1.678-2.008-1.445-4.013 0.2153-2.006 2.414-3.842l7.12-5.947 4.643 5.559-6.682 5.581q-1.428 1.193-0.5215 2.278 0.4373 0.5235 1.254 0.7465l7.739-6.464 4.913 5.883-11.46 9.572z" style="fill:#333;font-variant-caps:normal;font-variant-east-asian:normal;font-variant-ligatures:normal;font-variant-numeric:normal;stroke-width:.2646"/><path d="m34.42 140.4-4.133 1.754q-2.902-2.298-4.511-6.089-1.531-3.608-0.7168-5.974 0.8144-2.367 3.988-3.714l7.603-3.227 2.995 7.055-1.027 0.4361q1.806 1.08 2.6 2.952 0.6687 1.575 0.09841 3.057-0.5817 1.486-2.134 2.145-1.77 0.7511-3.429-0.0804-1.671-0.8266-2.563-2.927-0.5233-1.233-0.7028-2.545-0.959 0.407-1.181 1.377-0.2265 0.9584 0.3308 2.271 0.8238 1.941 2.782 3.508zm2.189-8.905-1.918 0.8141q0.05444 0.7314 0.2725 1.245 0.2714 0.6393 0.7672 0.887 0.4958 0.2476 1.032 0.0199 0.5594-0.2374 0.7617-0.8083 0.1975-0.5823-0.07389-1.222-0.2762-0.6508-0.8419-0.9361z" style="fill:#333;font-variant-caps:normal;font-variant-east-asian:normal;font-variant-ligatures:normal;font-variant-numeric:normal;stroke-width:.2646"/><path d="m19.12 109.1 4.145-0.6228 0.4754 3.164 3.164-0.4754q1.607-0.2414 1.391-1.676-0.1585-1.055-1.327-1.657l5.85-0.8789q1.446 1.614 1.832 4.177 0.4109 2.735-0.9384 4.857-1.351 2.109-4.209 2.539l-4.624 0.6946 0.4643 3.091-9.968-9.414 4.219-0.6338z" style="fill:#333;font-variant-caps:normal;font-variant-east-asian:normal;font-variant-ligatures:normal;font-variant-numeric:normal;stroke-width:.2646"/><path d="m20.69 83.71 14.83 1.75-0.8603 7.292-2.599-0.3066-0.0058 0.04927q1.284 1.288 1.799 2.535 0.5147 1.247 0.3244 2.861-0.2747 2.328-1.823 3.594-1.547 1.254-4.035 0.9601l-9.706-1.145 0.8487-7.193 7.994 0.9432q2.02 0.2383 2.183-1.141 0.109-0.9238-0.6241-1.485l-9.225-1.089zm-1.473 5.284q-0.08429 0.7144-0.6366 1.161-0.5631 0.4331-1.278 0.3488-0.7144-0.08429-1.149-0.6351-0.4454-0.5646-0.3611-1.279 0.08429-0.7144 0.6474-1.147 0.5523-0.4469 1.267-0.3626 0.7144 0.08429 1.16 0.6489 0.4345 0.5508 0.3503 1.265zm-0.7499 6.356q-0.08429 0.7144-0.6366 1.161-0.5631 0.4331-1.278 0.3488-0.7144-0.08429-1.149-0.6351-0.4454-0.5646-0.3611-1.279 0.08429-0.7144 0.6474-1.147 0.5523-0.4469 1.267-0.3626 0.7144 0.08429 1.16 0.6489 0.4345 0.5508 0.3503 1.265z" style="fill:#333;font-variant-caps:normal;font-variant-east-asian:normal;font-variant-ligatures:normal;font-variant-numeric:normal;stroke-width:.2646"/><path d="m29.31 69.19q-2.547-2.684-1.453-5.237 0.6106-1.425 1.941-1.948 1.33-0.5229 2.767 0.0926 1.505 0.6448 2.049 1.957 0.5375 1.296-0.08772 2.755-0.7132 1.664-2.475 2.313 0.4398 1.43 2.857 2.465l5.119 2.193-3.019 7.045-13.73-5.881 3.019-7.045z" style="fill:#333;font-variant-caps:normal;font-variant-east-asian:normal;font-variant-ligatures:normal;font-variant-numeric:normal;stroke-width:.2646"/><path d="m49.39 58.14-4.458 6.234-15.39-11.01 4.458-6.234z" style="fill:#333;font-variant-caps:normal;font-variant-east-asian:normal;font-variant-ligatures:normal;font-variant-numeric:normal;stroke-width:.2646"/><path d="m45.92 40.07q-0.636 0.6268-1.548 0.6202-0.912-0.0066-1.539-0.6427-0.6268-0.636-0.6115-1.539 0.01535-0.9032 0.6514-1.53 0.636-0.6268 1.531-0.6203 0.8945 0.0065 1.521 0.6425 0.6268 0.636 0.629 1.539 0.0022 0.9033-0.6338 1.53zm1.538-1.585 10.48 10.64-5.459 5.38-10.48-10.64q1.678-0.4526 3.401-2.15 1.599-1.576 2.058-3.23z" style="fill:#333;font-variant-caps:normal;font-variant-east-asian:normal;font-variant-ligatures:normal;font-variant-numeric:normal;stroke-width:.2646"/><path d="m65.52 26.4 3.488 5.542q-2.513 0.2918-4.129 1.309-0.9342 0.588-1.267 1.223-0.3294 0.6176 9.53e-4 1.142 0.7663 1.218 3.023-0.2027 1.931-1.216 2.848-2.716l3.448 5.479q-1.55 1.752-3.712 3.113-3.8 2.391-7.028 1.873-3.228-0.5184-4.998-3.331t-0.9823-5.961q0.7815-3.159 4.119-5.26 2.32-1.46 5.189-2.21z" style="fill:#333;font-variant-caps:normal;font-variant-east-asian:normal;font-variant-ligatures:normal;font-variant-numeric:normal;stroke-width:.2646"/><path d="m79.5 16.13 1.61 5.718q1.146-2.474 3.796-3.221 2.447-0.6892 4.259 0.3466 1.824 1.032 2.544 3.587l2.555 9.073-6.972 1.963-2.34-8.309q-0.511-1.815-1.908-1.421-0.6327 0.1782-1.107 0.9175l2.693 9.562-7.39 2.081-5.13-18.22z" style="fill:#333;font-variant-caps:normal;font-variant-east-asian:normal;font-variant-ligatures:normal;font-variant-numeric:normal;stroke-width:.2646"/><path d="m116.9 32.24-7.617-0.8539 2.109-18.81 7.617 0.8539z" style="fill:#333;font-variant-caps:normal;font-variant-east-asian:normal;font-variant-ligatures:normal;font-variant-numeric:normal;stroke-width:.2646"/><path d="m138 32.62-0.8664 2.469q-3.468 2.279-7.927 0.7149-3.675-1.289-5.195-4.11-1.517-2.832-0.3463-6.168 1.113-3.171 3.863-4.454 2.762-1.278 6.039-0.1287 1.674 0.5872 2.904 1.65 1.231 1.063 1.89 2.517 0.6597 1.454 0.6461 3.066-0.0136 1.612-0.7404 3.683l-7.384-2.591q0.0201 1.216 0.7428 2.153 0.7227 0.9371 1.928 1.36 2.434 0.8541 4.447-0.1616zm-6.684-5.973 3.406 1.195q0.3228-1.07 0.0483-1.823-0.2587-0.7611-1.019-1.028-0.6671-0.2341-1.36 0.1669-0.6886 0.3893-1.075 1.489z" style="fill:#333;font-variant-caps:normal;font-variant-east-asian:normal;font-variant-ligatures:normal;font-variant-numeric:normal;stroke-width:.2646"/><path d="m157.2 29.09-2.623 3.598q1.516 0.3838 2.688 1.239 2.556 1.863 3.007 4.802 0.4516 2.938-1.433 5.524-1.9 2.606-4.974 3.096-3.074 0.4906-6.291-1.855l-7.717-5.626 11.15-15.29zm-7.949 10.9 0.1403 0.1023q0.7817 0.5699 1.271 0.8039 0.5067 0.2313 1.018 0.09785 0.529-0.1362 1.055-0.8577 0.4895-0.6715 0.4137-1.325-0.0758-0.6539-0.6972-1.107-0.4911-0.358-1.207-0.45z" style="fill:#333;font-variant-caps:normal;font-variant-east-asian:normal;font-variant-ligatures:normal;font-variant-numeric:normal;stroke-width:.2646"/><path d="m171 62.3-2.083 1.585q-4.15-0.0061-7.011-3.767-2.358-3.099-2.075-6.291 0.293-3.199 3.106-5.34 2.675-2.035 5.677-1.592 3.01 0.453 5.112 3.217 1.074 1.411 1.516 2.976 0.4424 1.565 0.1928 3.141-0.2496 1.577-1.148 2.915-0.8986 1.338-2.646 2.667l-4.739-6.228q-0.6527 1.026-0.5652 2.207 0.0875 1.18 0.861 2.197 1.562 2.053 3.801 2.313zm-2.292-8.666 2.185 2.872q0.8583-0.7153 1.044-1.496 0.203-0.7778-0.2851-1.419-0.428-0.5626-1.227-0.6092-0.7892-0.05409-1.717 0.6518z" style="fill:#333;font-variant-caps:normal;font-variant-east-asian:normal;font-variant-ligatures:normal;font-variant-numeric:normal;stroke-width:.2646"/><path d="m185.3 71.39-1.755 0.6532q2.546 1.117 3.485 3.639 0.9128 2.453 0.0258 4.265-0.8711 1.82-3.556 2.819l-8.694 3.236-2.526-6.788 8.16-3.037q1.744-0.6489 1.25-1.974-0.2379-0.6393-0.9335-1.121l-9.45 3.517-2.673-7.183 13.99-5.209z" style="fill:#333;font-variant-caps:normal;font-variant-east-asian:normal;font-variant-ligatures:normal;font-variant-numeric:normal;stroke-width:.2646"/></g></svg>
