<svg width="30mm" height="30mm" version="1.1" viewBox="0 0 30 30" xmlns="http://www.w3.org/2000/svg"><g transform="matrix(.1733 0 0 .1733 -1.871 -2.499)"><path d="m85.99 43.87c-2.109 0.4254-4.145 1.152-6.047 2.157-10.95 5.789-15.14 19.36-9.349 30.31 9.81 13.99 22.24-8.81 38.88 1.359 4.21-6.773 4.508-15.27 0.7812-22.32-4.645-8.789-14.52-13.47-24.27-11.51zm38.12 24.76c-0.6526 0.1357-1.299 0.3008-1.937 0.4942-21.67 8.391 5.347 22.71-5.279 40.55 6.641 4.269 14.45 3.698 22.61 0.5666 8.162-3.132 13.72-16.02 10.65-26.16-3.371-11.11-14.67-17.82-26.04-15.45zm18.82 50.09c-7.991 0.4922-20.64-2.509-26.23-8.429 4.952 4.862 16.99 9.44 26 8.478 9.01-0.9619 17.45-5.192 22.49-11.28-5.515 6.396-12.96 10.11-22.27 11.23zm-80.81-35.49c-2.109 0.4254-4.145 1.152-6.047 2.157-10.95 5.789-15.14 19.36-9.349 30.31 5.789 10.95 19.36 15.14 30.31 9.349 14.68-10.34-10.32-22.03-0.01657-39.67-4.571-2.411-9.834-3.17-14.9-2.148zm23.17 34.39c-4.173 6.764-4.455 15.23-0.7409 22.26 5.789 10.95 19.36 15.14 30.31 9.349 10.95-5.789 15.14-19.36 9.349-30.31-10.04-15.12-22.06 8.175-38.92-1.295z" style="fill-rule:evenodd;fill:#f59;opacity:.99;paint-order:fill markers stroke;stroke-dashoffset:9.692;stroke-linecap:round;stroke-linejoin:round;stroke-width:.952;stroke:#808080"/><g transform="rotate(-60.14 97.88 101.9)" style="fill:#666;font-variant-caps:normal;font-variant-east-asian:normal;font-variant-ligatures:normal;font-variant-numeric:normal;stroke-width:.2646" aria-label="Puroviva natürlich leben"><path d="m124 31.94 1.407-2.59 2.948-5.814 2.07-4.25q0.2753-0.5833 0.5444-1.183 0.198-0.4413 0.5826-1.329 1.438 0.6724 2.344 1.079 0.7242 0.3249 2.029 0.8697 1.305 0.5448 2.063 0.8849 1.562 0.7006 2.196 1.257 0.6691 0.5992 1.019 1.395 0.3498 0.7958 0.3203 1.68-0.0362 0.9897-0.4677 1.952-0.6549 1.46-1.929 2.329-1.257 0.8633-2.811 0.8729-1.554 0.0097-3.127-0.696-0.7695-0.3452-1.57-0.8945 0.279-1.289 0.4241-2.46 0.6356 0.4619 1.326 0.7715 0.9392 0.4214 1.756 0.4481 0.8172 0.02678 1.509-0.4242 0.6967-0.4622 1.057-1.266 0.2132-0.4753 0.2212-0.9475 8e-3 -0.4722-0.2136-0.8571-0.2102-0.3798-0.5708-0.6367-0.3441-0.2631-1.068-0.588-0.6337-0.2843-1.289-0.551-0.6552-0.2667-1.153-0.4901-1.131 2.157-2.107 4.152l-2.075 4.262q-1.098 2.267-1.581 3.342-0.1828 0.4074-0.5166 1.182l-1.631-0.7587q-0.3168-0.1421-1.708-0.7389z" style="fill:#666;font-variant-caps:normal;font-variant-east-asian:normal;font-variant-ligatures:normal;font-variant-numeric:normal;stroke-width:.2646"/><path d="m149.6 47.58q-0.8371-0.7007-1.292-1.065-0.5716-0.4568-1.314-1.018l1.305-1.593q-0.5965 0.1901-1.001 0.2794-0.397 0.07961-0.92 0.05857-0.5152-0.03073-1.019-0.1951-0.4959-0.1741-1.069-0.4895-0.5715-0.298-1.133-0.7471-1.085-0.8672-1.642-1.82-0.5486-0.9624-0.5123-1.981 0.046-1.011 0.9983-2.203l0.1626-0.2035 2.153-2.376 2.778-3.178q0.3271-0.3895 0.7994-0.9805 0.9049 0.7549 1.428 1.173 0.5522 0.4413 1.353 1.049l-3.85 4.162q-0.4394 0.4903-0.7453 0.8333-0.2884 0.341-0.4123 0.4961-0.5575 0.6976-0.7257 1.325-0.1508 0.6257 0.1692 1.278 0.3296 0.6603 0.9206 1.133 0.5619 0.4491 1.236 0.6386 0.6102 0.1701 1.209 0.07686 0.6082-0.08553 1.303-0.4984 0.5054-0.2947 1.197-0.9807 0.4937-0.4787 1.589-1.73 1.332-1.508 2.654-3.102 0.9437 0.7859 1.447 1.189 0.5716 0.4568 1.304 1.01-1.223 1.293-3.014 3.275-1.783 1.973-2.915 3.29-1.125 1.308-2.439 2.893z" style="fill:#666;font-variant-caps:normal;font-variant-east-asian:normal;font-variant-ligatures:normal;font-variant-numeric:normal;stroke-width:.2646"/><path d="m153.5 51.82 4.808-3.424 2.725-2.075q0.8355-0.6434 1.665-1.314 0.1447-0.1169 0.9007-0.7599 0.7058 0.9126 1.049 1.337 0.3976 0.4919 1.072 1.287l-1.399 1.051q0.8171-0.05447 1.278 0.0033 0.4709 0.04993 0.9115 0.2201 0.4483 0.1798 0.8644 0.4973 0.4161 0.3175 0.7514 0.7323 0.3118 0.3858 0.5428 0.8689-0.897 0.7251-2.206 1.927-0.3056-0.6938-0.6799-1.157-0.4522-0.5594-0.9766-0.8532-0.507-0.2919-1.135-0.3584-0.6105-0.06472-1.291 0.1188-0.5532 0.1442-1.27 0.5797-0.5639 0.3282-1.826 1.253-1.254 0.9341-2.431 1.885-0.4533 0.3664-1.115 0.9489-0.5732-0.7486-1.064-1.356-0.4834-0.598-1.173-1.412z" style="fill:#666;font-variant-caps:normal;font-variant-east-asian:normal;font-variant-ligatures:normal;font-variant-numeric:normal;stroke-width:.2646"/><path d="m175.8 61.99q0.6408 1.274 0.8381 2.633 0.2139 1.364-0.1327 2.552-0.33 1.193-1.21 2.149-0.8686 0.9505-2.065 1.552-1.263 0.6352-2.655 0.7938-1.392 0.1585-2.668-0.2267-1.266-0.3909-2.316-1.403-1.034-1.007-1.731-2.392-0.6464-1.285-0.8548-2.638-0.1917-1.347 0.1605-2.552t1.232-2.188q0.8852-0.9727 2.082-1.575 1.219-0.613 2.522-0.7824 1.303-0.1694 2.58 0.2159 1.282 0.3964 2.405 1.442 1.123 1.046 1.814 2.42zm-2.282 1.148q-0.4848-0.964-1.346-1.489-0.8443-0.5194-1.964-0.4281-1.115 0.1024-2.212 0.6541-0.964 0.4848-1.567 1.163-0.5974 0.6892-0.7173 1.61-0.1143 0.9321 0.3649 1.885 0.4904 0.975 1.335 1.467 0.8609 0.4972 1.975 0.3948 1.131-0.09692 2.261-0.6653 0.9196-0.4625 1.528-1.129 0.6086-0.667 0.7174-1.582 0.1144-0.9043-0.376-1.879z" style="fill:#666;font-variant-caps:normal;font-variant-east-asian:normal;font-variant-ligatures:normal;font-variant-numeric:normal;stroke-width:.2646"/><path d="m169.6 81.74q2.368-1.383 11.31-7.111 0.2198 1.069 0.3973 1.843 0.1885 0.822 0.4096 1.675l-8.575 4.944 1.14 0.1456 7.526 1.137q0.5279 0.08251 1.38 0.1924 0.2032 0.9968 0.3806 1.77 0.1802 0.7857 0.4345 1.784l-4.719-0.9917-7.122-1.37-1.706-0.283q-0.2254-1.094-0.3945-1.831-0.1774-0.7737-0.4622-1.904z" style="fill:#666;font-variant-caps:normal;font-variant-east-asian:normal;font-variant-ligatures:normal;font-variant-numeric:normal;stroke-width:.2646"/><path d="m186.5 94.5q1.278-0.0085 1.96-0.03954l0.3965-0.01804q0.0265 1.129 0.0587 1.835 0.044 0.9664 0.1065 1.795-0.3114-0.02307-0.7085-0.01742l-1.651 0.01305q-0.0181-0.9427-0.0542-1.736t-0.1082-1.833zm-14.79 0.0026q1.867 0.1013 3.122 0.1186 1.988 0.03367 4.581 0.0025 2.594-0.01874 4.925-0.08758 0.0305 1.215 0.0581 1.822 0.0254 0.5575 0.1071 1.808-2.164-0.07534-4.126-0.09775-1.962-0.01002-4.492 0.05545-2.53 0.06547-4.004 0.1326-0.0265-1.129-0.0575-1.81-0.0293-0.6443-0.1133-1.944z" style="fill:#666;font-variant-caps:normal;font-variant-east-asian:normal;font-variant-ligatures:normal;font-variant-numeric:normal;stroke-width:.2646"/><path d="m171.5 107.3q2.703-0.4589 13.09-2.665-0.1715 1.078-0.2783 1.865-0.1135 0.8357-0.2074 1.712l-9.768 1.602 1.016 0.5385 6.642 3.718q0.4649 0.2634 1.224 0.6669-0.1615 1.004-0.2683 1.791-0.1085 0.7988-0.2225 1.822l-4.066-2.592-6.181-3.793-1.497-0.8667q0.1748-1.103 0.2766-1.852 0.1068-0.7865 0.2392-1.945z" style="fill:#666;font-variant-caps:normal;font-variant-east-asian:normal;font-variant-ligatures:normal;font-variant-numeric:normal;stroke-width:.2646"/><path d="m178.1 124.5q0.7718 0.4816 1.094 0.645 0.3181 0.175 0.9615 0.541-0.2328 1.717-0.5436 2.979-0.3108 1.262-0.7412 2.386-0.488 1.274-1.197 2.224-0.6977 0.9546-1.577 1.308t-2.095-0.1121q-0.6602-0.2529-3.299-1.476-2.628-1.219-5.498-2.359 0.3604-0.8713 0.6443-1.613 0.2706-0.7065 0.6113-1.665 1.344 0.6874 3.15 1.485l2.826 1.255q-0.1209-0.551-0.148-0.827-0.0271-0.276-0.0204-0.6055 0.0183-0.325 0.0893-1.135 0.0826-0.8051 0.1007-1.303 0.018-0.4978-0.0413-0.9322-0.0522-0.4184-0.2022-0.7548-0.1385-0.332-0.3605-0.5498-0.2149-0.2018-0.516-0.3172-0.4864-0.1863-0.9519-0.0459-0.4584 0.1564-0.7615 0.5317-0.3031 0.3753-0.525 0.9544-0.142 0.3706-0.2394 0.7982-0.1018 0.4391-0.1364 1.223-0.567-0.4961-1.751-1.322 0.176-0.8755 0.3276-1.375 0.1516-0.4997 0.3113-0.9167 0.559-1.459 1.312-2.247 0.7531-0.7873 1.783-0.9106 1.026-0.1118 1.894 0.221 0.498 0.1908 0.9179 0.5508 0.4199 0.3601 0.6966 0.8512 0.2767 0.4912 0.4432 1.166 0.1781 0.6792 0.1396 1.82-0.027 1.145-0.3024 2.939-0.0759 0.4756-0.1304 0.9992-0.0429 0.5281-0.022 0.8548 0.0165 0.3383 0.1335 0.6222 0.1286 0.2883 0.3132 0.4653 0.1801 0.1885 0.4118 0.2773 0.4517 0.173 0.8797-8e-3 0.4236-0.1697 0.7214-0.6002 0.3049-0.4145 0.5223-0.982 0.8075-2.108 0.776-5.042z" style="fill:#666;font-variant-caps:normal;font-variant-east-asian:normal;font-variant-ligatures:normal;font-variant-numeric:normal;stroke-width:.2646"/><path d="m144.7 156.5q1.28 2.524 3.019 5.578 1.729 3.061 3.208 5.413-0.9737 0.5953-1.548 0.9637-0.6785 0.4354-1.427 0.9452l-1.024-1.848q-0.0289 0.6669-0.0948 1.092-0.0764 0.4322-0.2847 0.9342-0.2188 0.5088-0.5462 0.94-0.3379 0.4379-0.81 0.8734-0.4825 0.4422-1.067 0.8173-0.929 0.5961-1.929 0.8986-1.003 0.3196-1.853 0.143-0.8501-0.1766-1.406-0.6748-0.5555-0.4982-0.9909-1.177-0.1808-0.2818-0.5447-0.9178l-2.708-4.702q-0.5678-0.9767-1.247-2.058 0.838-0.5083 1.423-0.8834 0.7933-0.509 1.584-1.046 0.4992 0.9617 1.821 3.297 1.328 2.345 1.797 3.076 0.5292 0.8246 1.112 1.158t1.303 0.2395q0.7102-0.0874 1.347-0.4959 0.6263-0.4019 1.015-0.9903 0.3887-0.5884 0.4907-1.302 0.1161-0.7376-0.0963-1.574-0.2288-0.8847-1.192-2.639-0.8534-1.56-2.398-4.105 0.8171-0.4949 1.464-0.9102 0.6576-0.422 1.584-1.046z" style="fill:#666;font-variant-caps:normal;font-variant-east-asian:normal;font-variant-ligatures:normal;font-variant-numeric:normal;stroke-width:.2646"/><path d="m130.5 175.8q0.1174 0.9021 0.1958 1.255 0.0666 0.3569 0.1919 1.086-1.475 0.9095-2.648 1.47-1.173 0.5606-2.314 0.9407-1.294 0.4311-2.479 0.4857-1.181 0.0664-2.012-0.3888-0.8313-0.4552-1.243-1.691-0.2234-0.6707-0.9522-3.487-0.7248-2.804-1.665-5.746 0.9021-0.2743 1.655-0.5251 0.7178-0.2391 1.675-0.584 0.3212 1.475 0.8502 3.377l0.8228 2.981q0.3492-0.4431 0.5453-0.6391 0.1962-0.196 0.455-0.3999 0.2628-0.1921 0.9336-0.6508 0.6747-0.4469 1.071-0.7488 0.3962-0.3019 0.6944-0.6234 0.2903-0.3058 0.4551-0.6352 0.1687-0.3176 0.1962-0.6275 0.0197-0.2941-0.0822-0.6001-0.1646-0.4942-0.5685-0.7649-0.4117-0.255-0.8941-0.2512-0.4824 4e-3 -1.071 0.1998-0.3765 0.1254-0.7688 0.3214-0.404 0.1999-1.032 0.6704 0.0237-0.753-0.0897-2.192 0.7884-0.4194 1.271-0.6194 0.4824-0.1999 0.9061-0.341 1.483-0.4938 2.569-0.4112 1.086 0.0826 1.835 0.8006 0.7371 0.7218 1.031 1.604 0.1685 0.506 0.1566 1.059-0.0119 0.553-0.216 1.078t-0.62 1.082q-0.412 0.5686-1.318 1.263-0.9022 0.7057-2.463 1.631-0.4158 0.2431-0.8551 0.5332-0.4354 0.3019-0.6747 0.5254-0.2511 0.2274-0.3962 0.498-0.1413 0.2824-0.1609 0.5373-0.0314 0.2588 0.0469 0.4942 0.1528 0.4589 0.5646 0.6747 0.4 0.2197 0.9216 0.1767 0.5138-0.0273 1.09-0.2194 2.142-0.7132 4.389-2.599z" style="fill:#666;font-variant-caps:normal;font-variant-east-asian:normal;font-variant-ligatures:normal;font-variant-numeric:normal;stroke-width:.2646"/><path d="m104.6 174.3q0.0671-0.6949 0.1686-2.568 1.007-0.3573 1.59-0.4893t1.101-0.1937q0.9113-0.1086 1.658-0.0228 0.7348 0.0873 1.254 0.4625 0.5208 0.3876 0.7622 0.9458 0.2306 0.572 0.3054 1.2 0.0191 0.1601 0.039 0.4325 0.02 0.2724 0.1099 1.76l0.3273 5.157 1.773-0.2114q0.0265 0.7462 0.1724 2.39l-1.86 0.2216q0.0112 0.7231 0.1414 2.444l-1.419 0.4564q-0.4454 0.1405-1.713 0.6163-0.1119-1.673-0.2728-3.127l-3.128 0.3728q-0.1119-1.673-0.1971-2.387l3.14-0.3743q-0.3388-5.043-0.4327-5.831-0.091-0.7635-0.301-1.163-0.2223-0.3982-0.6138-0.5389-0.3915-0.1407-0.8102-0.0908-0.3079 0.0367-0.6345 0.1256-0.339 0.0904-1.162 0.4133z" style="fill:#666;font-variant-caps:normal;font-variant-east-asian:normal;font-variant-ligatures:normal;font-variant-numeric:normal;stroke-width:.2646"/><path d="m87.12 170.8q1.084 0.1293 1.664 0.1852 0.7284 0.0702 1.657 0.1346l-0.2221 2.047q0.3956-0.4852 0.6858-0.7812 0.289-0.2837 0.7384-0.5518 0.4483-0.2559 0.9599-0.3935 0.5105-0.1253 1.163-0.1745 0.6415-0.0628 1.358 6e-3 1.383 0.1332 2.369 0.6269 0.9854 0.5061 1.512 1.379 0.5141 0.8719 0.3678 2.39l-0.02497 0.2592-0.5043 3.166-0.5895 4.18q-0.0611 0.505-0.1336 1.258-1.17-0.1377-1.837-0.2019-0.7037-0.0678-1.706-0.1394l0.9496-5.59q0.1001-0.6507 0.1688-1.105 0.05515-0.4432 0.07418-0.6408 0.08562-0.8889-0.1166-1.506-0.2157-0.6064-0.8403-0.978-0.6369-0.3728-1.39-0.4454-0.716-0.069-1.384 0.1408-0.604 0.191-1.054 0.5962-0.4625 0.404-0.819 1.13-0.2622 0.523-0.4661 1.475-0.1518 0.6707-0.3852 2.318-0.2914 1.99-0.527 4.048-1.22-0.1424-1.862-0.2042-0.7284-0.0702-1.644-0.1335 0.3182-1.751 0.7344-4.39 0.415-2.626 0.6432-4.349 0.227-1.71 0.4615-3.756zm3.442 15.23-0.3038 1.989q-0.8124-0.1032-1.282-0.1484-0.4691-0.0452-1.237-0.0942l0.2667-1.993q0.7383 0.096 1.22 0.1424 0.4197 0.0404 1.336 0.1037zm4.173 0.4019-0.2914 1.99q-0.8248-0.1044-1.294-0.1496-0.4691-0.0452-1.237-0.0942 0.04966-0.2569 0.2667-1.993 0.7383 0.096 1.22 0.1424 0.4197 0.0404 1.336 0.1037z" style="fill:#666;font-variant-caps:normal;font-variant-east-asian:normal;font-variant-ligatures:normal;font-variant-numeric:normal;stroke-width:.2646"/><path d="m81.56 169.4-2.148 5.497-1.143 3.228q-0.3467 0.9959-0.6736 2.011-0.05701 0.1771-0.3375 1.129-1.09-0.3771-1.61-0.5443-0.6021-0.1938-1.601-0.4895l0.595-1.646q-0.6539 0.4931-1.071 0.6974-0.4214 0.2161-0.8832 0.315-0.4736 0.0951-0.9956 0.0573t-1.03-0.2012q-0.4722-0.152-0.93-0.4297 0.3535-1.098 0.7908-2.82 0.6357 0.4131 1.202 0.5956 0.6847 0.2204 1.284 0.179 0.5841-0.0335 1.146-0.3216 0.5462-0.2802 1.015-0.8066 0.3839-0.4236 0.7449-1.18 0.2921-0.5835 0.8418-2.048 0.5379-1.468 1.002-2.909 0.1786-0.5549 0.4131-1.404 0.8896 0.3125 1.633 0.5519 0.7319 0.2357 1.755 0.5389z" style="fill:#666;font-variant-caps:normal;font-variant-east-asian:normal;font-variant-ligatures:normal;font-variant-numeric:normal;stroke-width:.2646"/><path d="m69.8 165.1q-1.102 1.793-3.759 6.538-2.674 4.751-4.495 8.264-1.143-0.5977-1.632-0.8412-0.6549-0.3265-1.609-0.7747l2.286-3.918 4.893-8.841 1.074-2.042q0.8991 0.476 1.532 0.7914 0.2109 0.1052 1.709 0.8245z" style="fill:#666;font-variant-caps:normal;font-variant-east-asian:normal;font-variant-ligatures:normal;font-variant-numeric:normal;stroke-width:.2646"/><path d="m52.75 172.5q-0.7562 1.031-1.138 1.596l-0.2222 0.3289q-0.9214-0.6523-1.507-1.048-0.8016-0.5415-1.504-0.9861 0.2044-0.2361 0.4368-0.558l0.9747-1.332q0.7672 0.5482 1.425 0.9925t1.535 1.007zm8.823-11.87q-1.195 1.437-1.958 2.434-1.214 1.575-2.736 3.674-1.533 2.092-2.869 4.004-0.9933-0.7009-1.497-1.041-0.4625-0.3124-1.514-0.993 1.352-1.691 2.541-3.252 1.179-1.568 2.636-3.637 1.457-2.069 2.283-3.292 0.9214 0.6523 1.487 1.034 0.5344 0.361 1.627 1.069z" style="fill:#666;font-variant-caps:normal;font-variant-east-asian:normal;font-variant-ligatures:normal;font-variant-numeric:normal;stroke-width:.2646"/><path d="m44.76 150.4q0.3971-0.3236 0.9334-0.7026t1.296-0.973q1.562 0.934 2.805 2.129 0.7243 0.6962 1.266 1.475 0.5417 0.7787 0.7963 1.677 0.2371 0.8988 0.1337 1.883t-0.6447 1.995q-0.5589 1.011-1.375 1.86-1.083 1.127-2.438 1.82-1.364 0.6848-2.688 0.6672-1.333-9e-3 -2.406-0.5927-1.09-0.5837-2.137-1.589-0.5812-0.5587-1.129-1.223-0.5568-0.6556-1.2-1.669l1.748-2.087q0.8939 1.737 1.886 2.691 0.608 0.5844 1.351 0.9031 0.7342 0.31 1.557 0.2411 0.8056-0.0686 1.534-0.4864 0.7196-0.4265 1.304-1.035 0.8165-0.8494 1.159-1.725 0.3248-0.8748 0.0076-1.833-0.3172-0.9586-1.14-1.749-0.4024-0.3868-1.069-0.8385-0.6843-0.4514-1.552-0.8377z" style="fill:#666;font-variant-caps:normal;font-variant-east-asian:normal;font-variant-ligatures:normal;font-variant-numeric:normal;stroke-width:.2646"/><path d="m43.26 144.4-3.557 1.919-5.021 2.853-6.104 3.692q-0.5665-0.9332-0.9537-1.539-0.5073-0.7944-0.9888-1.502l2.608-1.401q0.9599-0.5247 3.065-1.722-0.7153-0.0141-1.106-0.0734-0.3977-0.0698-0.7803-0.208-0.3997-0.142-0.733-0.3413-0.3332-0.1992-0.6952-0.5126-0.3686-0.3238-0.7384-0.7646-0.3698-0.4408-0.6902-0.9425-0.554-0.8676-0.8627-1.789-0.3154-0.9317-0.2121-1.807 0.09657-0.8857 0.6007-1.502 0.487-0.62 1.177-1.061 0.4495-0.287 1.434-0.8422l4.728-2.666q0.7308-0.4225 1.661-1.017 0.5198 0.86 0.9336 1.508 0.4472 0.7003 1.042 1.586-1.327 0.6413-3.546 1.867-2.226 1.215-3.125 1.789-0.8258 0.5273-1.112 1.093-0.3035 0.5617-0.1893 1.225 0.09712 0.659 0.4909 1.276 0.5073 0.7944 1.177 1.22 0.6456 0.4118 1.443 0.4619 0.6564 0.037 1.633-0.2775 1.025-0.3307 2.931-1.401 0.9219-0.5151 3.575-2.121 0.5064 0.8391 0.8869 1.435 0.3605 0.5644 1.029 1.565z" style="fill:#666;font-variant-caps:normal;font-variant-east-asian:normal;font-variant-ligatures:normal;font-variant-numeric:normal;stroke-width:.2646"/><path d="m28.18 101.2q-2.094-0.2111-7.522-0.5364-5.441-0.3379-9.396-0.4472 0.04022-1.289 0.04674-1.835 0.0087-0.7317-0.0035-1.786l4.523 0.3517 10.09 0.5547 2.306 0.07718q-0.03696 1.017-0.04541 1.724-0.0028 0.2356 0.0021 1.898z" style="fill:#666;font-variant-caps:normal;font-variant-east-asian:normal;font-variant-ligatures:normal;font-variant-numeric:normal;stroke-width:.2646"/><path d="m27.85 80.19q0.6865 0.3004 2.49 0.9611 0.01951 1.369-0.06152 2.289t-0.2618 1.832q-0.3157 1.594-0.8827 2.796-0.5646 1.19-1.592 1.973-1.04 0.7802-2.358 0.9869-1.318 0.2067-2.668-0.06083-1.496-0.2965-2.792-1.097-1.308-0.8027-2.01-1.915-0.7123-1.127-0.8386-2.404-0.1385-1.279 0.1218-2.593 0.2458-1.241 0.7839-2.298 0.5259-1.059 1.381-1.674 0.8575-0.6267 1.935-0.8305 1.067-0.2184 2.284 0.02261 0.5718 0.1133 1.156 0.3554l-1.755 8.92q0.4453 0.1135 0.713 0.1665 0.8151 0.1615 1.552 0.01664 0.7367-0.1448 1.317-0.5861 0.5805-0.4413 0.9587-1.138 0.366-0.6987 0.5082-1.417 0.1663-0.8394 0.1766-1.849 0.01274-1.022-0.1577-2.459zm-6.472 6.885 1.14-5.691q-0.584-0.1157-0.871-0.1346-0.287-0.01894-0.6664 0.04499-0.3891 0.04935-0.7001 0.2153-0.3232 0.1636-0.5635 0.4194-0.2403 0.2558-0.4148 0.6259-0.172 0.3579-0.2588 0.7958-0.1012 0.511-0.03948 1.029 0.06416 0.5058 0.2888 0.9675 0.2246 0.4617 0.5511 0.7919 0.3289 0.318 0.6576 0.5096 0.3165 0.1891 0.8764 0.4265z" style="fill:#666;font-variant-caps:normal;font-variant-east-asian:normal;font-variant-ligatures:normal;font-variant-numeric:normal;stroke-width:.2646"/><path d="m32.24 75.29q-2.038-1.205-7.202-3.92-5.17-2.732-7.791-3.978 0.4921-0.9884 0.835-1.718 0.343-0.7296 0.711-1.571 1.493 0.9348 3.853 2.182 0.3039-1.2 0.5426-1.883 0.2275-0.6879 0.5282-1.328 0.8284-1.762 1.954-2.699 1.12-0.9536 2.754-1.076 1.623-0.128 3.452 0.7321 1.28 0.6015 2.318 1.542 1.032 0.9238 1.632 2.097 0.5939 1.156 0.5462 2.395-0.04772 1.238-0.6176 2.451-0.2744 0.5836-0.6241 1.036-0.3332 0.4464-0.7357 0.7779-0.3973 0.3203-0.8249 0.5304-0.4224 0.1989-0.7973 0.2967-0.3696 0.08662-0.9894 0.1515l1.887 0.9419q-0.4551 0.9098-0.7031 1.437-0.19 0.4041-0.7268 1.604zm-7.405-7.716 1.877 0.9921q0.6015 0.3239 1.185 0.5983 1.392 0.6543 2.332 0.7536 0.9341 0.08282 1.694-0.3961 0.7596-0.4789 1.161-1.332 0.438-0.9316 0.266-1.848-0.1832-0.9221-0.9796-1.735-0.7911-0.8242-1.857-1.325-1.538-0.7229-2.854-0.3415-1.317 0.3814-2.066 1.975-0.2427 0.5163-0.4168 1.12-0.1853 0.5981-0.34 1.54z" style="fill:#666;font-variant-caps:normal;font-variant-east-asian:normal;font-variant-ligatures:normal;font-variant-numeric:normal;stroke-width:.2646"/><path d="m45.71 48.42q0.4637 0.5886 1.743 2.022-0.6285 1.217-1.134 1.989-0.505 0.7727-1.095 1.492-1.03 1.257-2.097 2.05-1.059 0.7836-2.334 0.9893-1.285 0.1978-2.544-0.2413-1.26-0.4391-2.324-1.312-1.18-0.967-1.945-2.284-0.7746-1.324-0.8695-2.637-0.09659-1.33 0.394-2.515 0.481-1.193 1.33-2.229 0.8019-0.9784 1.775-1.656 0.9631-0.6859 2.007-0.8246 1.052-0.1483 2.098 0.1798 1.044 0.3107 2.003 1.097 0.4508 0.3695 0.8518 0.8585l-5.753 7.039q0.3392 0.3101 0.5502 0.483 0.6427 0.5267 1.361 0.7464 0.718 0.2196 1.438 0.1042t1.382-0.5512q0.6522-0.4436 1.116-1.01 0.5425-0.6619 1.028-1.547 0.4929-0.8949 1.02-2.243zm-8.954 3.02 3.689-4.481q-0.4604-0.3774-0.7046-0.5294t-0.6089-0.2745q-0.3664-0.1399-0.7189-0.1402-0.3621-0.0082-0.6947 0.1041-0.3326 0.1123-0.6609 0.3563-0.3205 0.2345-0.6035 0.5798-0.3302 0.4029-0.52 0.8888-0.1819 0.4763-0.2016 0.9894-0.01964 0.5131 0.1126 0.9582 0.1401 0.4356 0.3397 0.7595 0.19 0.3161 0.5718 0.7893z" style="fill:#666;font-variant-caps:normal;font-variant-east-asian:normal;font-variant-ligatures:normal;font-variant-numeric:normal;stroke-width:.2646"/><path d="m51.8 46.22q-1.439-2.436-3.37-5.374-1.921-2.944-3.547-5.197 0.9337-0.6564 1.483-1.061 0.6493-0.4779 1.364-1.035l1.14 1.779q-0.01383-0.6674 0.02477-1.096 0.04858-0.4361 0.2244-0.9505 0.1858-0.5217 0.485-0.973 0.3092-0.4586 0.7525-0.9234 0.4532-0.4722 1.013-0.8839 0.889-0.6543 1.867-1.02 0.9808-0.3831 1.84-0.2612 0.8597 0.1219 1.446 0.5836 0.5862 0.4617 1.064 1.111 0.1985 0.2697 0.6023 0.8811l3.003 4.519q0.629 0.9384 1.376 1.975-0.8038 0.5608-1.363 0.9725-0.7591 0.5587-1.514 1.145-0.5597-0.9278-2.028-3.174-1.475-2.256-1.99-2.955-0.5808-0.7891-1.183-1.085-0.6026-0.2957-1.316-0.1557-0.7032 0.1326-1.312 0.581-0.5993 0.4411-0.9496 1.053-0.3503 0.612-0.4064 1.331-0.06872 0.7436 0.1967 1.565 0.2849 0.8683 1.359 2.557 0.9514 1.502 2.656 3.943-0.7838 0.5461-1.403 1.002-0.6293 0.4632-1.514 1.145z" style="fill:#666;font-variant-caps:normal;font-variant-east-asian:normal;font-variant-ligatures:normal;font-variant-numeric:normal;stroke-width:.2646"/></g></g></svg>
