<?xml version="1.0" standalone="no"?>
<!DOCTYPE svg PUBLIC "-//W3C//DTD SVG 20010904//EN"
 "http://www.w3.org/TR/2001/REC-SVG-20010904/DTD/svg10.dtd">
<svg version="1.0" xmlns="http://www.w3.org/2000/svg"
 width="790.000000pt" height="790.000000pt" viewBox="0 0 790.000000 790.000000"
 preserveAspectRatio="xMidYMid meet">
<metadata>
Created by potrace 1.14, written by Peter Selinger 2001-2017
</metadata>
<g transform="translate(0.000000,790.000000) scale(0.100000,-0.100000)"
fill="#000000" stroke="none">
<path d="M3718 7895 c-1 -1 -44 -6 -94 -9 -51 -4 -100 -8 -110 -10 -11 -2 -48
-7 -84 -11 -36 -4 -110 -15 -165 -26 -55 -10 -114 -21 -132 -24 -18 -3 -45
-10 -60 -16 -15 -6 -29 -10 -31 -9 -17 10 -340 -89 -532 -163 -407 -156 -845
-423 -1170 -712 -79 -70 -325 -318 -371 -374 -24 -29 -54 -65 -67 -80 -54 -61
-195 -254 -265 -361 -273 -420 -470 -909 -566 -1410 -27 -138 -29 -149 -37
-228 -3 -37 -8 -69 -9 -72 -25 -43 -25 -786 0 -880 2 -8 6 -42 10 -75 7 -74
25 -180 40 -245 3 -14 8 -38 10 -55 2 -16 20 -91 39 -166 113 -436 289 -830
544 -1213 47 -71 91 -136 98 -145 7 -9 41 -52 75 -96 35 -44 68 -85 73 -92 6
-6 38 -43 71 -82 59 -69 272 -283 350 -351 173 -151 345 -279 551 -407 133
-83 368 -203 539 -275 160 -68 428 -159 510 -174 14 -2 35 -8 47 -13 13 -5 25
-9 28 -8 3 0 48 -9 100 -21 115 -25 206 -42 240 -46 96 -12 148 -18 170 -22
69 -11 216 -18 415 -18 242 -1 381 7 537 29 24 4 59 8 78 11 19 3 60 10 90 15
30 6 69 13 85 15 68 12 348 85 447 118 255 83 563 223 788 356 98 58 300 192
326 215 7 5 24 19 40 30 160 115 451 386 608 567 259 298 498 681 645 1033 23
55 48 114 55 130 51 115 158 485 191 660 8 44 17 91 20 104 2 14 9 61 15 105
6 45 12 95 15 111 20 154 27 581 13 760 -8 90 -34 297 -43 345 -3 14 -8 39
-10 55 -3 17 -8 37 -10 45 -2 8 -7 31 -10 50 -3 19 -13 62 -21 95 -9 33 -17
67 -19 75 -55 266 -248 734 -426 1032 -184 307 -353 522 -609 778 -161 162
-228 221 -375 334 -55 42 -105 80 -110 84 -25 20 -226 152 -280 184 -320 190
-691 344 -1045 433 -142 36 -304 70 -380 79 -25 3 -54 8 -65 10 -11 2 -54 7
-95 11 -41 4 -86 9 -100 11 -31 6 -567 14 -572 9z"/>
</g>
</svg>
