<?xml version="1.0" standalone="no"?>
<!DOCTYPE svg PUBLIC "-//W3C//DTD SVG 20010904//EN"
 "http://www.w3.org/TR/2001/REC-SVG-20010904/DTD/svg10.dtd">
<svg version="1.0" xmlns="http://www.w3.org/2000/svg"
 width="700.000000pt" height="700.000000pt" viewBox="0 0 700.000000 700.000000"
 preserveAspectRatio="xMidYMid meet">
<metadata>
Created by potrace 1.14, written by Peter Selinger 2001-2017
</metadata>
<g transform="translate(0.000000,700.000000) scale(0.100000,-0.100000)"
fill="#000000" stroke="none">
<path d="M3570 6984 c-57 -17 -124 -73 -152 -128 -29 -57 -36 -171 -14 -230
44 -116 183 -180 330 -153 63 11 98 29 138 70 52 54 73 111 73 202 0 120 -38
181 -140 226 -61 27 -170 33 -235 13z m187 -117 c43 -29 61 -91 45 -163 -14
-69 -37 -103 -84 -124 -86 -38 -177 15 -186 109 -9 97 28 173 95 196 46 16 89
10 130 -18z"/>
<path d="M3065 6975 c-22 -8 -55 -31 -72 -51 l-33 -37 0 32 c0 31 -1 32 -32
26 -18 -3 -42 -8 -53 -10 -11 -2 -28 -4 -38 -4 -13 -1 -16 -7 -12 -23 14 -65
39 -254 51 -398 6 -75 12 -92 32 -86 9 3 37 8 62 11 59 9 59 9 50 52 -30 138
-32 275 -5 321 22 36 69 62 113 62 26 0 30 3 26 23 -21 104 -23 106 -89 82z"/>
<path d="M4233 6913 c3 -5 8 -80 11 -168 12 -294 17 -360 26 -369 6 -6 10 -7
10 -4 0 3 28 -2 63 -13 l62 -19 24 27 c13 16 93 108 178 205 85 97 154 180
154 184 0 7 -105 44 -126 44 -5 0 -20 -15 -32 -33 -13 -17 -34 -45 -48 -61
-14 -16 -58 -71 -97 -122 -40 -51 -74 -91 -76 -89 -3 2 -5 90 -6 196 l-1 192
-65 19 c-72 20 -83 22 -77 11z"/>
<path d="M2424 6827 c-28 -12 -53 -24 -54 -27 -2 -3 16 -63 40 -135 61 -182
57 -237 -17 -286 -34 -23 -91 -25 -119 -4 -24 16 -48 73 -96 228 -37 121 -30
117 -123 77 -38 -16 -46 -24 -40 -38 4 -9 34 -93 66 -185 59 -174 73 -198 123
-224 83 -43 256 32 287 125 l11 34 17 -35 16 -36 62 26 62 25 -26 66 c-22 59
-67 194 -120 360 -10 28 -22 52 -28 51 -5 0 -33 -10 -61 -22z"/>
<path d="M5071 6764 c-12 -19 -19 -39 -16 -44 6 -10 101 -60 114 -60 9 0 55
70 49 75 -8 6 -117 65 -121 65 -3 0 -15 -16 -26 -36z"/>
<path d="M4943 6533 c-33 -60 -73 -130 -88 -158 -15 -27 -40 -69 -56 -92 -55
-84 -56 -78 16 -116 72 -39 68 -40 110 43 29 58 168 301 191 335 8 11 14 22
14 26 0 6 -113 69 -123 69 -3 0 -32 -48 -64 -107z"/>
<path d="M1540 6578 c-19 -5 -48 -19 -65 -31 -69 -48 -255 -188 -255 -192 0
-3 22 -35 48 -72 49 -69 259 -387 301 -455 12 -21 25 -38 28 -38 5 0 32 20 90
66 l26 21 -40 54 c-92 124 -284 420 -278 428 14 23 130 91 155 91 32 0 79 -48
81 -83 3 -62 -13 -92 -73 -133 l-40 -28 37 -32 38 -32 33 20 c88 52 139 132
138 218 -1 133 -111 230 -224 198z"/>
<path d="M5281 6200 c-45 -137 -83 -253 -83 -257 -1 -5 25 -29 58 -54 l59 -47
145 80 c80 44 190 102 245 130 l100 50 -50 44 c-28 24 -56 44 -63 44 -7 0 -88
-45 -179 -100 -91 -55 -167 -99 -168 -98 -2 2 28 86 66 188 38 102 65 186 60
188 -6 2 -32 21 -59 42 l-48 39 -83 -249z"/>
<path d="M5977 5847 c-20 -11 -37 -24 -37 -27 0 -4 22 -21 49 -38 26 -18 65
-50 85 -73 61 -70 60 -121 -3 -127 -26 -3 -46 7 -105 51 -131 99 -195 120
-264 85 -27 -12 -45 -31 -56 -56 -34 -75 -19 -127 61 -213 l45 -48 34 16 c19
9 34 19 34 22 0 3 -15 21 -34 39 -42 41 -52 76 -31 108 24 37 75 32 144 -14
31 -20 68 -43 83 -51 l27 -14 -102 -74 c-56 -40 -103 -77 -104 -81 -2 -4 17
-29 40 -56 l43 -49 159 119 c187 138 178 130 192 169 25 74 -38 175 -197 312
l-25 22 -38 -22z"/>
<path d="M3105 5839 c-22 -4 -53 -10 -70 -13 -260 -47 -515 -240 -638 -481
-33 -65 -75 -182 -83 -230 -2 -16 -8 -53 -13 -82 -33 -211 37 -483 159 -616
76 -83 150 -119 260 -124 100 -5 185 16 378 95 173 71 226 92 248 97 10 3 44
12 74 21 79 23 270 28 340 8 30 -8 64 -17 75 -19 11 -3 51 -21 90 -40 66 -34
70 -35 83 -18 44 58 102 210 122 318 14 73 17 231 7 300 -68 441 -450 779
-891 789 -56 1 -119 -1 -141 -5z"/>
<path d="M4645 4838 c-108 -14 -250 -66 -329 -121 -165 -114 -213 -249 -160
-447 18 -70 83 -244 124 -335 72 -162 109 -383 87 -528 -9 -56 -46 -161 -82
-231 -30 -60 -27 -68 62 -136 134 -101 430 -224 613 -254 19 -3 46 -8 60 -11
141 -29 303 -22 513 20 187 38 450 169 591 296 75 67 136 132 136 146 0 30
-23 17 -101 -60 -46 -45 -119 -106 -162 -135 -123 -85 -354 -187 -466 -207
-19 -3 -37 -7 -40 -9 -18 -12 -133 -21 -246 -21 -238 1 -465 53 -676 153 -116
55 -265 156 -167 112 91 -40 197 -61 313 -62 97 0 138 4 260 27 79 15 257 78
314 112 222 131 389 449 397 758 7 276 -89 505 -290 692 -201 187 -480 277
-751 241z"/>
<path d="M2150 4249 c-100 -12 -186 -38 -287 -85 -329 -152 -531 -470 -531
-833 0 -93 3 -127 23 -226 7 -33 41 -126 64 -175 105 -222 310 -403 541 -479
291 -95 638 -40 810 128 149 147 156 299 25 577 -21 43 -57 120 -80 169 -142
302 -157 521 -50 737 18 36 30 71 26 76 -19 29 -206 95 -301 107 -90 10 -171
12 -240 4z"/>
<path d="M6383 3933 l2 -73 130 -1 c156 -2 160 -2 207 -22 93 -39 106 -185 20
-218 -15 -6 -98 -11 -185 -10 l-158 0 4 -72 3 -71 198 2 c225 3 250 9 287 68
19 32 23 51 23 119 -1 90 -23 148 -71 184 l-28 20 41 1 41 0 -5 68 c-2 37 -5
68 -6 69 -1 1 -115 3 -254 5 l-252 3 3 -72z"/>
<path d="M569 3506 c-2 -2 -51 -7 -109 -11 -172 -11 -203 -14 -253 -21 -94
-12 -135 -79 -124 -201 7 -75 27 -118 73 -158 l35 -31 -32 -2 c-45 -4 -48 -7
-39 -49 5 -20 8 -39 8 -42 -5 -51 -2 -53 75 -47 91 9 229 17 420 25 16 1 18 7
13 39 -3 20 -7 52 -8 70 l-2 32 -137 -6 c-163 -8 -199 -3 -244 37 -58 51 -59
146 -3 183 25 17 69 22 233 32 118 6 126 8 120 27 -2 7 -6 36 -9 66 -6 53 -9
65 -17 57z"/>
<path d="M6423 3220 c-41 -25 -71 -84 -82 -162 -5 -35 -8 -63 -7 -64 0 0 17
-10 37 -21 l36 -21 6 56 c8 72 40 109 83 95 43 -14 58 -50 68 -166 3 -31 8
-62 11 -67 6 -10 -48 -5 -65 5 -3 2 -17 6 -31 9 -13 3 -54 13 -90 24 l-66 19
-12 -65 c-7 -36 -8 -68 -4 -72 10 -8 382 -101 405 -100 80 1 134 111 145 295
l6 100 -45 16 -44 17 1 -102 c0 -108 -13 -159 -47 -177 -28 -15 -66 13 -72 53
-3 18 -8 71 -10 118 -9 134 -30 186 -91 214 -45 21 -93 20 -132 -4z"/>
<path d="M4185 3003 c-62 -12 -180 -54 -335 -118 -191 -80 -286 -111 -364
-122 -64 -10 -199 -10 -246 -1 -56 11 -156 46 -192 68 -18 10 -38 16 -44 12
-20 -13 -83 -149 -111 -239 -24 -79 -27 -104 -27 -248 -1 -186 15 -258 89
-410 211 -436 721 -633 1175 -453 162 64 273 152 415 329 56 71 129 248 150
369 62 353 -96 729 -337 801 -36 11 -141 18 -173 12z"/>
<path d="M642 2720 c-18 -4 -35 -9 -37 -11 -2 -3 14 -30 36 -62 83 -125 76
-228 -21 -277 l-40 -21 -11 28 c-6 16 -33 84 -59 153 -26 69 -51 133 -55 143
-19 45 -134 -16 -173 -93 -56 -108 12 -291 132 -352 51 -26 160 -28 225 -4 98
36 170 125 171 211 0 72 -41 191 -93 268 -19 29 -23 29 -75 17z m-167 -260
c53 -139 53 -129 2 -126 -65 4 -113 48 -124 116 -7 39 49 106 80 97 5 -2 24
-41 42 -87z"/>
<path d="M6214 2500 c-29 -12 -62 -60 -85 -125 -25 -72 -25 -76 16 -102 46
-30 52 -29 59 11 9 45 38 70 73 63 16 -3 77 -29 136 -57 117 -57 115 -54 81
-122 -22 -42 -17 -54 27 -71 l40 -16 20 42 c10 23 19 48 19 55 0 17 9 15 69
-9 28 -12 53 -20 56 -18 2 3 7 20 10 39 3 19 8 47 11 61 4 22 0 28 -36 44 -43
19 -46 29 -25 77 5 13 -3 21 -36 37 -23 12 -43 20 -44 18 -1 -1 -7 -16 -14
-34 l-13 -32 -137 69 c-142 71 -191 86 -227 70z"/>
<path d="M6025 2060 c-44 -10 -69 -25 -105 -67 -50 -56 -73 -117 -68 -174 3
-27 3 -49 1 -49 -3 0 -16 9 -30 20 l-25 19 -34 -50 c-19 -28 -34 -54 -34 -58
0 -4 37 -36 83 -71 134 -104 282 -223 285 -232 9 -20 33 -4 67 47 21 30 36 56
34 58 -108 79 -224 178 -240 203 -29 47 -33 87 -13 126 21 41 36 55 69 68 39
15 76 -5 208 -113 l116 -96 41 56 c22 31 40 59 39 62 0 3 -45 40 -100 81 -55
41 -124 94 -154 116 -64 49 -99 63 -140 54z"/>
<path d="M842 2044 c-97 -25 -186 -95 -218 -173 -33 -78 0 -184 86 -281 22
-24 40 -47 40 -50 0 -3 -31 -23 -70 -45 -38 -22 -70 -43 -70 -47 0 -4 17 -32
39 -63 l39 -55 93 61 c120 79 370 237 432 272 26 15 47 31 47 34 0 14 -66 102
-76 103 -5 0 -19 -7 -30 -15 -26 -20 -37 -19 -25 3 17 32 5 110 -26 160 -55
90 -149 124 -261 96z m147 -137 c56 -28 83 -105 55 -159 -21 -41 -163 -148
-197 -148 -18 0 -71 57 -92 99 -36 71 1 152 89 196 54 27 107 32 145 12z"/>
<path d="M6392 1606 l-32 -44 23 -14 c12 -8 27 -18 34 -21 11 -7 63 56 63 75
0 3 -13 16 -29 27 l-28 20 -31 -43z"/>
<path d="M5508 1484 c-27 -25 -48 -48 -48 -52 0 -4 22 -30 48 -57 77 -82 122
-142 142 -187 26 -59 14 -112 -35 -153 l-36 -30 40 -39 c45 -44 57 -43 96 8
19 26 28 49 29 81 l1 46 22 -25 22 -26 50 48 51 47 -69 74 c-38 41 -111 127
-162 192 -52 65 -96 118 -99 118 -3 0 -26 -20 -52 -45z"/>
<path d="M1392 1478 l-42 -32 62 -33 c148 -79 189 -180 110 -271 l-20 -23 -54
47 c-29 26 -84 74 -122 108 -105 93 -101 91 -130 59 -42 -45 -61 -93 -61 -153
1 -45 6 -63 32 -101 58 -83 133 -133 219 -144 109 -15 250 81 287 194 34 105
14 174 -74 261 -44 44 -147 120 -162 120 -2 0 -22 -14 -45 -32z m-4 -337 l73
-65 -33 -17 c-41 -22 -68 -23 -113 -5 -65 27 -87 96 -49 154 18 27 11 31 122
-67z"/>
<path d="M6294 1469 l-28 -40 30 -24 29 -24 27 32 c32 38 34 49 11 69 -34 29
-41 28 -69 -13z"/>
<path d="M5108 1162 l-58 -38 32 -50 c17 -27 96 -157 175 -289 79 -132 147
-240 151 -240 12 0 112 66 112 74 0 6 -46 82 -120 201 -16 26 -134 223 -150
251 -8 14 -28 49 -44 77 -16 29 -32 52 -35 52 -3 0 -32 -17 -63 -38z"/>
<path d="M1914 1023 c-26 -43 -109 -171 -184 -284 l-137 -206 31 -18 c17 -10
45 -26 62 -36 l31 -19 79 122 c43 68 127 197 187 286 60 90 107 165 105 167
-10 10 -110 65 -117 65 -5 0 -30 -35 -57 -77z"/>
<path d="M4773 971 c-29 -14 -52 -30 -53 -35 0 -5 18 -48 41 -95 55 -115 149
-337 149 -350 0 -6 5 -11 11 -11 8 0 106 43 127 56 2 1 -30 78 -71 170 -41 93
-86 196 -99 229 -13 33 -31 60 -39 61 -8 1 -37 -10 -66 -25z"/>
<path d="M4275 790 c-33 -9 -77 -24 -98 -35 -38 -18 -38 -18 -33 -68 3 -27 7
-52 9 -54 2 -2 27 8 55 23 135 70 231 20 247 -128 11 -98 -49 -160 -170 -173
-33 -4 -62 -9 -64 -10 -2 -2 5 -25 15 -50 l17 -46 53 6 c138 16 229 66 270
151 24 50 26 62 21 131 -8 105 -50 190 -114 232 -26 17 -56 32 -67 32 -12 1
-35 2 -51 4 -17 1 -57 -6 -90 -15z"/>
<path d="M3770 565 c-1 -187 -13 -234 -71 -277 -33 -25 -108 -28 -142 -5 -38
24 -44 62 -40 235 l3 153 -72 -3 -73 -3 0 -185 c-1 -203 7 -251 48 -286 78
-67 262 -49 326 32 l21 27 0 -127 0 -127 70 3 70 3 -1 343 0 343 -69 -3 -70
-2 0 -121z"/>
<path d="M5025 428 c-33 -17 -62 -32 -63 -33 -3 -3 25 -70 34 -83 1 -2 31 11
67 29 l65 32 -18 39 c-9 21 -19 40 -21 42 -2 2 -31 -10 -64 -26z"/>
</g>
</svg>
